<?xml version="1.0" encoding="UTF-8" standalone="no"?>
<!DOCTYPE svg PUBLIC "-//W3C//DTD SVG 1.1//EN" "http://www.w3.org/Graphics/SVG/1.1/DTD/svg11.dtd">
<svg xmlns="http://www.w3.org/2000/svg" version="1.1" width="45" height="45">
<g stroke="#000">
<g transform="translate(0 -.30936)">
<path d="m34 35.13-3-3h-17l-3 3" fill="#fff" fill-rule="evenodd" stroke-linecap="round" stroke-linejoin="round" stroke-width="1.5"/>
<path d="m11 35.13v5h4v-2h5v2h5v-2h5v2h4v-5" fill="#fff" fill-rule="evenodd" stroke-linejoin="round" stroke-width="1.5"/>
<path d="m31.553 32.418v-2.1149h-18.105v2.1149" fill="#fff" fill-rule="evenodd" stroke-width="1.5"/>
<path d="m11 35.13h23" fill="none" stroke-linecap="round" stroke-width="1px"/>
</g>
<g transform="matrix(-.76542 0 0 -.76542 37.206 35.182)" stroke-linecap="round">
<path d="m22.029 36c-10.5-1-16.5-8-16-29h23c0 9-10 6.5-8 21" fill="#fff" fill-rule="evenodd" stroke-width="1.5"/>
<path d="m20.029 28c-0.38446-2.9113 5.5529-7.3686 8-9 3-2 2.8192-4.3429 5-4 1.0417 0.94402-1.4134 3.0375 0 3 1 0-0.18733-1.2317 1-2 1 0 4.0032-1 4 4 0 2-6 12-6 12s-1.8859 1.9021-2 3.5c0.72605 0.99437 0.5 2 0.5 3-1 1-3-2.5-3-2.5h-2s-0.78178 1.9919-2.5 3c-1 0-1-3-1-3" fill="#fff" fill-rule="evenodd" stroke-linejoin="round" stroke-width="1.5"/>
<path transform="matrix(-1 0 0 -1 43.529 44)" d="m9 23.5a0.5 0.5 0 1 1-1 0 0.5 0.5 0 1 1 1 0z" stroke-linejoin="round" stroke-width="1.5"/>
<path transform="matrix(-.86602 -.5 .5 -.86602 34.336 51.173)" d="m15 15.5a0.5 1.5 0 1 1-1 0 0.5 1.5 0 1 1 1 0z" stroke-linejoin="round" stroke-width="1.5"/>
<path d="m7.029 7c-1 20 5.5 27.5 12 28.5" fill="none"/>
</g>
<path d="m30 30h-15" fill="none"/>
</g>
</svg>
